<svg xmlns="http://www.w3.org/2000/svg" width="30" height="30"  ><path  d="M30 15c0 8.284-6.716 15-15 15-8.284 0-15-6.716-15-15C0 6.716 6.716 0 15 0c8.284 0 15 6.716 15 15Z"/><path fill="#000" fill-opacity=".1" fill-rule="evenodd" d="M15 29c7.732 0 14-6.268 14-14S22.732 1 15 1 1 7.268 1 15s6.268 14 14 14Zm0 1c8.284 0 15-6.716 15-15 0-8.284-6.716-15-15-15C6.716 0 0 6.716 0 15c0 8.284 6.716 15 15 15Z" clip-rule="evenodd"/><path fill="#000" d="M21 10.108 19.892 9 15.5 13.392 11.108 9 10 10.108l4.392 4.392L10 18.892 11.108 20l4.392-4.392L19.892 20 21 18.892 16.608 14.5 21 10.108Z"/></svg>